<svg width="89" height="89" viewBox="0 0 89 89" fill="none" xmlns="http://www.w3.org/2000/svg">
<path d="M66.0925 40.2443C54.2771 33.229 34.5232 32.4905 23.2617 35.9982C21.4155 36.552 19.5694 35.4443 19.0155 33.7828C18.4617 31.9367 19.5694 30.0905 21.2309 29.5367C34.3386 25.6597 55.9386 26.3982 69.6002 34.5213C71.2617 35.4444 71.8155 37.6597 70.8925 39.3213C69.9694 40.6136 67.754 41.1674 66.0925 40.2443ZM65.7232 50.5828C64.8001 51.8751 63.1386 52.429 61.8463 51.5059C51.8771 45.4136 36.7386 43.5674 25.1078 47.2597C23.6309 47.629 21.9694 46.8905 21.6001 45.4136C21.2309 43.9367 21.9694 42.2751 23.4463 41.9059C36.9232 37.8444 53.5386 39.8751 64.9848 46.8905C66.0925 47.4444 66.6463 49.2905 65.7232 50.5828ZM61.2925 60.7367C60.554 61.8444 59.2617 62.2136 58.154 61.4751C49.4771 56.1213 38.5848 55.0136 25.6617 57.9674C24.3694 58.3367 23.2617 57.4136 22.8925 56.3059C22.5232 55.0136 23.4463 53.9059 24.554 53.5367C38.5848 50.3982 50.7694 51.6905 60.3694 57.5982C61.6617 58.152 61.8463 59.629 61.2925 60.7367ZM44.3078 7.38281C39.459 7.38281 34.6577 8.33786 30.178 10.1934C25.6983 12.049 21.6279 14.7687 18.1993 18.1973C11.2749 25.1218 7.38477 34.5133 7.38477 44.3059C7.38477 54.0985 11.2749 63.49 18.1993 70.4144C21.6279 73.8431 25.6983 76.5628 30.178 78.4184C34.6577 80.2739 39.459 81.229 44.3078 81.229C54.1005 81.229 63.492 77.3389 70.4164 70.4144C77.3408 63.49 81.2309 54.0985 81.2309 44.3059C81.2309 39.4571 80.2759 34.6558 78.4203 30.176C76.5648 25.6963 73.845 21.626 70.4164 18.1973C66.9878 14.7687 62.9174 12.049 58.4377 10.1934C53.958 8.33786 49.1567 7.38281 44.3078 7.38281Z" fill="black"/>
</svg>
