<svg width="89" height="89" viewBox="0 0 89 89" fill="none" xmlns="http://www.w3.org/2000/svg">
<path fill-rule="evenodd" clip-rule="evenodd" d="M58.0617 81.229V52.632H67.6617L69.098 41.4887H58.058V34.3736C58.058 31.1465 58.9552 28.9459 63.5854 28.9459H69.4857V18.9767C66.6284 18.6697 63.7563 18.5217 60.8826 18.5336C52.3755 18.5336 46.5528 23.7287 46.5528 33.2659V41.4887H36.9232V52.632H46.5491V81.229H11.4611C9.20877 81.229 7.38477 79.405 7.38477 77.1527V11.4591C7.38477 9.20681 9.20877 7.38281 11.4611 7.38281H77.1546C79.4069 7.38281 81.2309 9.20681 81.2309 11.4591V77.1527C81.2309 79.405 79.4069 81.229 77.1546 81.229H58.0617Z" fill="black"/>
</svg>
