<svg width="89" height="89" viewBox="0 0 89 89" fill="none" xmlns="http://www.w3.org/2000/svg">
<path d="M36.9232 55.384L56.0863 44.3071L36.9232 33.2302V55.384ZM79.6063 26.4732C80.0863 28.2086 80.4186 30.5348 80.6402 33.4886C80.8986 36.4425 81.0094 38.9902 81.0094 41.2056L81.2309 44.3071C81.2309 52.3932 80.6401 58.3379 79.6063 62.1409C78.6832 65.464 76.5417 67.6056 73.2186 68.5286C71.4832 69.0086 68.3078 69.3409 63.434 69.5625C58.634 69.8209 54.2402 69.9317 50.1786 69.9317L44.3078 70.1532C28.8371 70.1532 19.2002 69.5625 15.3971 68.5286C12.074 67.6056 9.93246 65.464 9.00938 62.1409C8.52938 60.4056 8.19707 58.0794 7.97554 55.1256C7.71707 52.1717 7.6063 49.624 7.6063 47.4086L7.38477 44.3071C7.38477 36.2209 7.97554 30.2763 9.00938 26.4732C9.93246 23.1502 12.074 21.0086 15.3971 20.0856C17.1325 19.6056 20.3078 19.2732 25.1817 19.0517C29.9817 18.7932 34.3755 18.6825 38.4371 18.6825L44.3078 18.4609C59.7786 18.4609 69.4155 19.0517 73.2186 20.0856C76.5417 21.0086 78.6832 23.1502 79.6063 26.4732Z" fill="black"/>
</svg>
