<svg width="89" height="89" viewBox="0 0 89 89" fill="none" xmlns="http://www.w3.org/2000/svg">
<path d="M28.8002 7.38281H59.8155C71.6309 7.38281 81.2309 16.9828 81.2309 28.7982V59.8136C81.2309 65.4933 78.9747 70.9404 74.9585 74.9565C70.9423 78.9727 65.4953 81.229 59.8155 81.229H28.8002C16.9848 81.229 7.38477 71.629 7.38477 59.8136V28.7982C7.38477 23.1185 9.64102 17.6714 13.6572 13.6552C17.6734 9.63907 23.1204 7.38281 28.8002 7.38281ZM28.0617 14.7674C24.5363 14.7674 21.1554 16.1679 18.6626 18.6607C16.1698 21.1534 14.7694 24.5344 14.7694 28.0597V60.552C14.7694 67.8997 20.714 73.8444 28.0617 73.8444H60.554C64.0793 73.8444 67.4603 72.4439 69.9531 69.9511C72.4459 67.4583 73.8463 64.0774 73.8463 60.552V28.0597C73.8463 20.712 67.9017 14.7674 60.554 14.7674H28.0617ZM63.6925 20.3059C64.9165 20.3059 66.0905 20.7922 66.956 21.6577C67.8216 22.5233 68.3078 23.6972 68.3078 24.9213C68.3078 26.1454 67.8216 27.3193 66.956 28.1848C66.0905 29.0504 64.9165 29.5367 63.6925 29.5367C62.4684 29.5367 61.2944 29.0504 60.4289 28.1848C59.5633 27.3193 59.0771 26.1454 59.0771 24.9213C59.0771 23.6972 59.5633 22.5233 60.4289 21.6577C61.2944 20.7922 62.4684 20.3059 63.6925 20.3059ZM44.3078 25.8444C49.2041 25.8444 53.8999 27.7894 57.3621 31.2516C60.8243 34.7138 62.7694 39.4096 62.7694 44.3059C62.7694 49.2022 60.8243 53.898 57.3621 57.3602C53.8999 60.8224 49.2041 62.7674 44.3078 62.7674C39.4115 62.7674 34.7158 60.8224 31.2536 57.3602C27.7914 53.898 25.8463 49.2022 25.8463 44.3059C25.8463 39.4096 27.7914 34.7138 31.2536 31.2516C34.7158 27.7894 39.4115 25.8444 44.3078 25.8444ZM44.3078 33.229C41.3701 33.229 38.5526 34.396 36.4753 36.4733C34.3979 38.5506 33.2309 41.3681 33.2309 44.3059C33.2309 47.2437 34.3979 50.0611 36.4753 52.1385C38.5526 54.2158 41.3701 55.3828 44.3078 55.3828C47.2456 55.3828 50.0631 54.2158 52.1404 52.1385C54.2177 50.0611 55.3848 47.2437 55.3848 44.3059C55.3848 41.3681 54.2177 38.5506 52.1404 36.4733C50.0631 34.396 47.2456 33.229 44.3078 33.229Z" fill="black"/>
</svg>
