<svg width="219" height="64" viewBox="0 0 219 64" fill="none" xmlns="http://www.w3.org/2000/svg">
<path fill-rule="evenodd" clip-rule="evenodd" d="M0 18.8754V63.8754H7.5V52.6254H13.125L24.375 63.8754H33.75L21.8262 51.9516C24.4238 51.1704 26.7578 49.7446 28.8281 47.6743C32.1094 44.393 33.75 40.4184 33.75 35.7504C33.75 31.0825 32.0996 27.1079 28.7988 23.8266C25.5176 20.5258 21.543 18.8754 16.875 18.8754H0ZM7.5 45.1254V26.3754H16.875C19.4727 26.3754 21.6797 27.2934 23.4961 29.1293C25.332 30.9457 26.25 33.1528 26.25 35.7504C26.25 38.3481 25.332 40.5649 23.4961 42.4008C21.6797 44.2172 19.4727 45.1254 16.875 45.1254H7.5Z" fill="#F8FA10"/>
<path fill-rule="evenodd" clip-rule="evenodd" d="M54.77 18.8754L34.0008 63.8754H42.4383L45.8367 56.3754H67.1648L70.5633 63.8754H79.0008L58.2316 18.8754H54.77ZM56.5008 32.9379L63.7371 48.8754H49.2645L56.5008 32.9379Z" fill="#F8FA10"/>
<path fill-rule="evenodd" clip-rule="evenodd" d="M79.8961 18.8754V63.8754H98.6461C104.857 63.8754 110.16 61.6782 114.554 57.2836C118.949 52.8891 121.146 47.5864 121.146 41.3754C121.146 35.1645 118.949 29.8618 114.554 25.4672C110.16 21.0727 104.857 18.8754 98.6461 18.8754H79.8961ZM87.3961 56.3754V26.3754H98.6461C102.787 26.3754 106.322 27.8403 109.252 30.77C112.181 33.6996 113.646 37.2348 113.646 41.3754C113.646 45.5161 112.181 49.0512 109.252 51.9809C106.322 54.9106 102.787 56.3754 98.6461 56.3754H87.3961Z" fill="#F8FA10"/>
<path fill-rule="evenodd" clip-rule="evenodd" d="M137.83 18.8754L117.061 63.8754H125.498L128.897 56.3754H150.225L153.623 63.8754H162.061L141.292 18.8754H137.83ZM139.561 32.9379L146.797 48.8754H132.325L139.561 32.9379Z" fill="#F8FA10"/>
<path fill-rule="evenodd" clip-rule="evenodd" d="M162.956 18.8754V63.8754H170.456V52.6254H176.081L187.331 63.8754H196.706L184.782 51.9516C187.38 51.1704 189.714 49.7446 191.784 47.6743C195.066 44.393 196.706 40.4184 196.706 35.7504C196.706 31.0825 195.056 27.1079 191.755 23.8266C188.474 20.5258 184.499 18.8754 179.831 18.8754H162.956ZM179.831 45.1254H170.456V26.3754H179.831C182.429 26.3754 184.636 27.2934 186.452 29.1293C188.288 30.9457 189.206 33.1528 189.206 35.7504C189.206 38.3481 188.288 40.5649 186.452 42.4008C184.636 44.2172 182.429 45.1254 179.831 45.1254Z" fill="#F8FA10"/>
<path fill-rule="evenodd" clip-rule="evenodd" d="M0 18.8754V63.8754H7.5V52.6254H13.125L24.375 63.8754H33.75L21.8262 51.9516C24.4238 51.1704 26.7578 49.7446 28.8281 47.6743C32.1094 44.393 33.75 40.4184 33.75 35.7504C33.75 31.0825 32.0996 27.1079 28.7988 23.8266C25.5176 20.5258 21.543 18.8754 16.875 18.8754H0ZM7.5 45.1254V26.3754H16.875C19.4727 26.3754 21.6797 27.2934 23.4961 29.1293C25.332 30.9457 26.25 33.1528 26.25 35.7504C26.25 38.3481 25.332 40.5649 23.4961 42.4008C21.6797 44.2172 19.4727 45.1254 16.875 45.1254H7.5Z" fill="#F8FA10"/>
<path fill-rule="evenodd" clip-rule="evenodd" d="M54.77 18.8754L34.0008 63.8754H42.4383L45.8367 56.3754H67.1648L70.5633 63.8754H79.0008L58.2316 18.8754H54.77ZM56.5008 32.9379L63.7371 48.8754H49.2645L56.5008 32.9379Z" fill="#F8FA10"/>
<path fill-rule="evenodd" clip-rule="evenodd" d="M79.8961 18.8754V63.8754H98.6461C104.857 63.8754 110.16 61.6782 114.554 57.2836C118.949 52.8891 121.146 47.5864 121.146 41.3754C121.146 35.1645 118.949 29.8618 114.554 25.4672C110.16 21.0727 104.857 18.8754 98.6461 18.8754H79.8961ZM87.3961 56.3754V26.3754H98.6461C102.787 26.3754 106.322 27.8403 109.252 30.77C112.181 33.6996 113.646 37.2348 113.646 41.3754C113.646 45.5161 112.181 49.0512 109.252 51.9809C106.322 54.9106 102.787 56.3754 98.6461 56.3754H87.3961Z" fill="#F8FA10"/>
<path fill-rule="evenodd" clip-rule="evenodd" d="M137.83 18.8754L117.061 63.8754H125.498L128.897 56.3754H150.225L153.623 63.8754H162.061L141.292 18.8754H137.83ZM139.561 32.9379L146.797 48.8754H132.325L139.561 32.9379Z" fill="#F8FA10"/>
<path fill-rule="evenodd" clip-rule="evenodd" d="M162.956 18.8754V63.8754H170.456V52.6254H176.081L187.331 63.8754H196.706L184.782 51.9516C187.38 51.1704 189.714 49.7446 191.784 47.6743C195.066 44.393 196.706 40.4184 196.706 35.7504C196.706 31.0825 195.056 27.1079 191.755 23.8266C188.474 20.5258 184.499 18.8754 179.831 18.8754H162.956ZM179.831 45.1254H170.456V26.3754H179.831C182.429 26.3754 184.636 27.2934 186.452 29.1293C188.288 30.9457 189.206 33.1528 189.206 35.7504C189.206 38.3481 188.288 40.5649 186.452 42.4008C184.636 44.2172 182.429 45.1254 179.831 45.1254Z" fill="#F8FA10"/>
<path d="M186.774 15.1274C190.286 16.7761 193.015 18.2947 195.21 20.3249C197.658 22.5898 199.488 25.5436 200.882 30.1839L202.822 29.6891C201.35 24.7546 199.358 21.4376 196.568 18.8568C194.115 16.5874 191.082 14.9291 187.401 13.2112L186.774 15.1274Z" fill="#F8FA10"/>
<path d="M188.853 8.77123C194.55 11.3336 198.292 13.9184 201.134 16.9868C203.978 20.0578 205.965 23.6563 208.078 28.348L210.046 27.846C207.847 22.9259 205.718 18.9927 202.601 15.6278C199.492 12.27 195.444 9.52235 189.478 6.85965L188.853 8.77123Z" fill="#F8FA10"/>
<path d="M190.789 2.85134C196.418 4.66213 200.868 7.10728 204.672 10.5716C208.848 14.3756 212.301 19.4571 215.66 26.4137L217.637 25.9094C214.157 18.6302 210.52 13.1929 206.018 9.09299C201.96 5.39668 197.245 2.82819 191.411 0.950443L190.789 2.85134Z" fill="#F8FA10"/>
<path d="M186.618 15.6065C190.085 17.2369 192.739 18.7207 194.87 20.692C197.234 22.8782 199.023 25.7415 200.397 30.3076L203.307 29.5654C201.815 24.558 199.783 21.1499 196.907 18.4898C194.389 16.1597 191.279 14.4665 187.558 12.7323L186.618 15.6065Z" fill="#F8FA10"/>
<path d="M188.697 9.24922C194.325 11.786 197.992 14.33 200.767 17.3265C203.544 20.3251 205.495 23.8412 207.586 28.4735L210.538 27.7205C208.318 22.7455 206.154 18.7275 202.968 15.288C199.791 11.8574 195.667 9.06918 189.635 6.38184L188.697 9.24922Z" fill="#F8FA10"/>
<path d="M190.634 3.32656C196.212 5.12062 200.595 7.53493 204.335 10.9413C208.431 14.672 211.837 19.6652 215.166 26.5398L218.131 25.7833C214.622 18.4249 210.938 12.8979 206.355 8.72333C202.233 4.96904 197.451 2.36971 191.566 0.47522L190.634 3.32656Z" fill="#F8FA10"/>
</svg>
