<svg width="413" height="147" viewBox="0 0 413 147" fill="none" xmlns="http://www.w3.org/2000/svg">
<path d="M2 2H410.292V144.437H2V2Z" fill="white" stroke="black" stroke-width="4"/>
<path d="M46.7521 67V30.6364H61.9155C64.638 30.6364 66.9167 31.0211 68.7514 31.7905C70.598 32.5599 71.983 33.6371 72.9062 35.022C73.8414 36.407 74.3089 38.0109 74.3089 39.8338C74.3089 41.2188 74.0189 42.4557 73.4389 43.5447C72.8589 44.6219 72.0599 45.5156 71.0419 46.2259C70.0239 46.9361 68.8461 47.4332 67.5085 47.7173V48.0724C68.9763 48.1435 70.3317 48.54 71.5746 49.2621C72.8293 49.9841 73.8355 50.9903 74.593 52.2805C75.3506 53.5589 75.7294 55.0741 75.7294 56.826C75.7294 58.7791 75.2322 60.5251 74.2379 62.0639C73.2436 63.5909 71.8054 64.7983 69.9233 65.6861C68.0412 66.562 65.7566 67 63.0696 67H46.7521ZM55.5412 59.9155H60.9744C62.8802 59.9155 64.2829 59.5545 65.1825 58.8324C66.094 58.1103 66.5497 57.1042 66.5497 55.8139C66.5497 54.8788 66.3307 54.0739 65.8928 53.3991C65.4548 52.7126 64.8333 52.1858 64.0284 51.8189C63.2235 51.4401 62.2588 51.2507 61.1342 51.2507H55.5412V59.9155ZM55.5412 45.5866H60.4062C61.3651 45.5866 62.2173 45.4268 62.9631 45.1072C63.7088 44.7876 64.2888 44.326 64.7031 43.7223C65.1293 43.1186 65.3423 42.3906 65.3423 41.5384C65.3423 40.3191 64.9103 39.3603 64.0462 38.6619C63.1821 37.9635 62.0161 37.6143 60.5483 37.6143H55.5412V45.5866ZM81.4553 67V30.6364H90.2443V59.8622H105.372V67H81.4553ZM120.211 30.6364V67H111.422V30.6364H120.211ZM135.485 30.6364L143.617 57.2699H143.919L152.051 30.6364H161.888L149.619 67H137.918L125.648 30.6364H135.485ZM179.545 67V30.6364H204.9V37.7741H188.334V45.2315H203.604V52.3871H188.334V59.8622H204.9V67H179.545ZM242.853 30.6364V67H235.395L220.924 46.0128H220.694V67H211.904V30.6364H219.468L233.779 51.5881H234.081V30.6364H242.853ZM275.562 67H262.121V30.6364H275.545C279.25 30.6364 282.44 31.3643 285.115 32.8203C287.802 34.2644 289.873 36.3478 291.329 39.0703C292.785 41.781 293.513 45.0244 293.513 48.8004C293.513 52.5883 292.785 55.8435 291.329 58.5661C289.885 61.2886 287.82 63.3778 285.133 64.8338C282.446 66.2779 279.256 67 275.562 67ZM270.91 59.5071H275.225C277.261 59.5071 278.983 59.1638 280.392 58.4773C281.812 57.7789 282.884 56.6484 283.606 55.0859C284.34 53.5116 284.706 51.4164 284.706 48.8004C284.706 46.1844 284.34 44.1011 283.606 42.5504C282.872 40.9879 281.789 39.8634 280.356 39.1768C278.936 38.4785 277.184 38.1293 275.101 38.1293H270.91V59.5071ZM300.145 67V30.6364H325.5V37.7741H308.934V45.2315H324.204V52.3871H308.934V59.8622H325.5V67H300.145ZM332.504 67V30.6364H341.293V59.8622H356.421V67H332.504ZM54.6179 117H45.1719L57.4411 80.6364H69.142L81.4112 117H71.9652L63.4247 89.7983H63.1406L54.6179 117ZM53.3572 102.689H73.1016V109.365H53.3572V102.689ZM86.8263 117V80.6364H111.649V87.7741H95.6154V95.2315H110.069V102.387H95.6154V117H86.8263ZM129.817 117V80.6364H138.606V95.2315H152.934V80.6364H161.706V117H152.934V102.387H138.606V117H129.817ZM203.041 98.8182C203.041 102.819 202.271 106.21 200.732 108.992C199.194 111.774 197.11 113.887 194.482 115.331C191.866 116.775 188.931 117.497 185.676 117.497C182.409 117.497 179.467 116.769 176.851 115.313C174.235 113.857 172.158 111.744 170.619 108.974C169.092 106.193 168.328 102.807 168.328 98.8182C168.328 94.8172 169.092 91.4259 170.619 88.6442C172.158 85.8625 174.235 83.7495 176.851 82.3054C179.467 80.8613 182.409 80.1392 185.676 80.1392C188.931 80.1392 191.866 80.8613 194.482 82.3054C197.11 83.7495 199.194 85.8625 200.732 88.6442C202.271 91.4259 203.041 94.8172 203.041 98.8182ZM194.056 98.8182C194.056 96.4508 193.719 94.4503 193.044 92.8168C192.381 91.1832 191.423 89.9463 190.168 89.1058C188.925 88.2654 187.427 87.8452 185.676 87.8452C183.936 87.8452 182.438 88.2654 181.183 89.1058C179.929 89.9463 178.964 91.1832 178.289 92.8168C177.626 94.4503 177.295 96.4508 177.295 98.8182C177.295 101.186 177.626 103.186 178.289 104.82C178.964 106.453 179.929 107.69 181.183 108.531C182.438 109.371 183.936 109.791 185.676 109.791C187.427 109.791 188.925 109.371 190.168 108.531C191.423 107.69 192.381 106.453 193.044 104.82C193.719 103.186 194.056 101.186 194.056 98.8182ZM209.672 117V80.6364H218.461V109.862H233.589V117H209.672ZM253.08 117H239.639V80.6364H253.062C256.767 80.6364 259.957 81.3643 262.632 82.8203C265.319 84.2644 267.391 86.3478 268.847 89.0703C270.303 91.781 271.031 95.0244 271.031 98.8004C271.031 102.588 270.303 105.844 268.847 108.566C267.403 111.289 265.337 113.378 262.65 114.834C259.963 116.278 256.773 117 253.08 117ZM248.428 109.507H252.743C254.779 109.507 256.501 109.164 257.909 108.477C259.33 107.779 260.401 106.648 261.123 105.086C261.857 103.512 262.224 101.416 262.224 98.8004C262.224 96.1844 261.857 94.1011 261.123 92.5504C260.389 90.9879 259.306 89.8634 257.874 89.1768C256.453 88.4785 254.702 88.1293 252.618 88.1293H248.428V109.507ZM277.662 117V80.6364H303.017V87.7741H286.451V95.2315H301.721V102.387H286.451V109.862H303.017V117H277.662ZM308.832 87.7741V80.6364H339.567V87.7741H328.541V117H319.876V87.7741H308.832ZM355.569 80.6364L354.752 105.867H347.455L346.638 80.6364H355.569ZM351.095 117.515C349.828 117.515 348.739 117.065 347.828 116.165C346.928 115.266 346.478 114.177 346.478 112.898C346.478 111.644 346.928 110.572 347.828 109.685C348.739 108.785 349.828 108.335 351.095 108.335C352.314 108.335 353.385 108.785 354.308 109.685C355.244 110.572 355.711 111.644 355.711 112.898C355.711 113.751 355.492 114.526 355.054 115.224C354.628 115.923 354.066 116.479 353.367 116.893C352.681 117.308 351.923 117.515 351.095 117.515Z" fill="black"/>
</svg>
