<svg width="165" height="53" viewBox="0 0 165 53" fill="none" xmlns="http://www.w3.org/2000/svg">
<path d="M1.11579 1.11579H163.463V51.8842H1.11579V1.11579Z" fill="white" stroke="black" stroke-width="2.23158"/>
<path d="M28.1009 32V17.4545H31.6165V29.1449H37.6676V32H28.1009ZM38.4508 32L44.4025 17.4545H57.7477V20.3097H51.1212V23.2926H57.2292V26.1548H51.1212V29.1449H57.7477V32H47.6056V20.9702H46.6042L42.3144 32H38.4508ZM41.8599 28.946V26.2756H49.644V28.946H41.8599ZM67.2045 21.8153C67.1571 21.2945 66.9464 20.8897 66.5724 20.6009C66.2031 20.3073 65.6751 20.1605 64.9886 20.1605C64.534 20.1605 64.1552 20.2197 63.8522 20.3381C63.5492 20.4564 63.3219 20.6198 63.1704 20.8281C63.0189 21.0317 62.9407 21.2661 62.936 21.5312C62.9265 21.7491 62.9692 21.9408 63.0638 22.1065C63.1633 22.2723 63.3053 22.419 63.49 22.5469C63.6794 22.67 63.9067 22.7789 64.1718 22.8736C64.437 22.9683 64.7353 23.0511 65.0667 23.1222L66.3167 23.4062C67.0364 23.5625 67.6709 23.7708 68.2201 24.0312C68.7741 24.2917 69.2381 24.6018 69.6121 24.9616C69.9909 25.3215 70.2774 25.7358 70.4715 26.2045C70.6656 26.6733 70.7651 27.1989 70.7698 27.7812C70.7651 28.6998 70.5331 29.4882 70.0738 30.1463C69.6145 30.8045 68.954 31.3087 68.0923 31.6591C67.2353 32.0095 66.2007 32.1847 64.9886 32.1847C63.7717 32.1847 62.7111 32.0024 61.8067 31.6378C60.9024 31.2732 60.1993 30.7192 59.6974 29.9759C59.1955 29.2325 58.9374 28.2926 58.9232 27.1562H62.2897C62.3181 27.625 62.4436 28.0156 62.6661 28.3281C62.8887 28.6406 63.1941 28.8774 63.5823 29.0384C63.9753 29.1993 64.4299 29.2798 64.946 29.2798C65.4194 29.2798 65.8219 29.2159 66.1533 29.0881C66.4895 28.9602 66.7476 28.7827 66.9275 28.5554C67.1074 28.3281 67.1997 28.0677 67.2045 27.7741C67.1997 27.4995 67.1145 27.2652 66.9488 27.071C66.7831 26.8722 66.5274 26.7017 66.1817 26.5597C65.8408 26.4129 65.4052 26.2779 64.8749 26.1548L63.355 25.7997C62.0956 25.5109 61.1036 25.0445 60.3792 24.4006C59.6548 23.7519 59.2949 22.8759 59.2996 21.7727C59.2949 20.8731 59.5364 20.0848 60.0241 19.4077C60.5118 18.7306 61.1865 18.2027 62.0482 17.8239C62.91 17.4451 63.8924 17.2557 64.9957 17.2557C66.1226 17.2557 67.1003 17.4474 67.9289 17.831C68.7622 18.2098 69.4085 18.7424 69.8678 19.429C70.3271 20.1155 70.5615 20.911 70.571 21.8153H67.2045ZM75.6423 17.4545H79.996L83.6891 26.4602H83.8596L87.5528 17.4545H91.9065V32H88.4832V23.0653H88.3624L84.8681 31.9077H82.6806L79.1863 23.0156H79.0656V32H75.6423V17.4545ZM93.4993 32V17.4545H103.641V20.3097H97.0149V23.2926H103.123V26.1548H97.0149V29.1449H103.641V32H93.4993ZM105.243 32V17.4545H111.252C112.341 17.4545 113.28 17.651 114.071 18.044C114.867 18.4323 115.48 18.991 115.911 19.7202C116.342 20.4446 116.557 21.304 116.557 22.2983C116.557 23.3068 116.337 24.1638 115.896 24.8693C115.456 25.5701 114.831 26.1051 114.021 26.4744C113.212 26.839 112.253 27.0213 111.145 27.0213H107.345V24.2514H110.492C111.022 24.2514 111.465 24.1828 111.82 24.0455C112.18 23.9034 112.452 23.6903 112.637 23.4062C112.821 23.1174 112.913 22.7481 112.913 22.2983C112.913 21.8485 112.821 21.4768 112.637 21.1832C112.452 20.8849 112.18 20.6624 111.82 20.5156C111.46 20.3641 111.017 20.2884 110.492 20.2884H108.759V32H105.243ZM113.432 25.3523L117.054 32H113.219L109.668 25.3523H113.432ZM117.885 32V17.4545H128.027V20.3097H121.401V23.2926H127.509V26.1548H121.401V29.1449H128.027V32H117.885Z" fill="black"/>
</svg>
