<svg width="316" height="53" viewBox="0 0 316 53" fill="none" xmlns="http://www.w3.org/2000/svg">
<path d="M1.11579 1.11579H314.884V51.8842H1.11579V1.11579Z" fill="white" stroke="black" stroke-width="2.23158"/>
<path d="M72.1009 32V17.4545H82.0298V20.3097H75.6165V23.2926H81.3977V26.1548H75.6165V32H72.1009ZM83.2001 32V17.4545H86.7157V29.1449H92.7668V32H83.2001ZM93.9868 32V17.4545H104.129V20.3097H97.5024V23.2926H103.61V26.1548H97.5024V29.1449H104.129V32H93.9868ZM105.731 32V17.4545H111.739C112.828 17.4545 113.768 17.651 114.559 18.044C115.354 18.4323 115.967 18.991 116.398 19.7202C116.829 20.4446 117.044 21.304 117.044 22.2983C117.044 23.3068 116.824 24.1638 116.384 24.8693C115.944 25.5701 115.319 26.1051 114.509 26.4744C113.699 26.839 112.74 27.0213 111.633 27.0213H107.833V24.2514H110.979C111.509 24.2514 111.952 24.1828 112.307 24.0455C112.667 23.9034 112.939 23.6903 113.124 23.4062C113.309 23.1174 113.401 22.7481 113.401 22.2983C113.401 21.8485 113.309 21.4768 113.124 21.1832C112.939 20.8849 112.667 20.6624 112.307 20.5156C111.947 20.3641 111.505 20.2884 110.979 20.2884H109.246V32H105.731ZM113.919 25.3523L117.542 32H113.706L110.155 25.3523H113.919ZM118.373 32V17.4545H128.515V20.3097H121.888V23.2926H127.996V26.1548H121.888V29.1449H128.515V32H118.373ZM137.51 32V17.4545H141.026V23.6051H141.218L146.026 17.4545H150.166L145.01 23.946L150.259 32H146.054L142.432 26.2827L141.026 28.0582V32H137.51ZM163.823 24.7273C163.823 26.3277 163.515 27.6842 162.899 28.7969C162.284 29.9096 161.45 30.7547 160.399 31.3324C159.353 31.91 158.179 32.1989 156.876 32.1989C155.57 32.1989 154.393 31.9077 153.347 31.3253C152.3 30.7429 151.469 29.8977 150.854 28.7898C150.243 27.6771 149.938 26.3229 149.938 24.7273C149.938 23.1269 150.243 21.7704 150.854 20.6577C151.469 19.545 152.3 18.6998 153.347 18.1222C154.393 17.5445 155.57 17.2557 156.876 17.2557C158.179 17.2557 159.353 17.5445 160.399 18.1222C161.45 18.6998 162.284 19.545 162.899 20.6577C163.515 21.7704 163.823 23.1269 163.823 24.7273ZM160.229 24.7273C160.229 23.7803 160.094 22.9801 159.824 22.3267C159.559 21.6733 159.175 21.1785 158.673 20.8423C158.176 20.5062 157.577 20.3381 156.876 20.3381C156.18 20.3381 155.582 20.5062 155.08 20.8423C154.578 21.1785 154.192 21.6733 153.922 22.3267C153.657 22.9801 153.524 23.7803 153.524 24.7273C153.524 25.6742 153.657 26.4744 153.922 27.1278C154.192 27.7812 154.578 28.276 155.08 28.6122C155.582 28.9484 156.18 29.1165 156.876 29.1165C157.577 29.1165 158.176 28.9484 158.673 28.6122C159.175 28.276 159.559 27.7812 159.824 27.1278C160.094 26.4744 160.229 25.6742 160.229 24.7273ZM177.654 17.4545V32H174.671L168.883 23.6051H168.791V32H165.275V17.4545H168.301L174.025 25.8352H174.146V17.4545H177.654ZM192.468 22.7244H188.917C188.87 22.3598 188.772 22.0308 188.626 21.7372C188.479 21.4437 188.285 21.1927 188.043 20.9844C187.802 20.776 187.515 20.6174 187.184 20.5085C186.857 20.3949 186.495 20.3381 186.097 20.3381C185.392 20.3381 184.783 20.5109 184.272 20.8565C183.765 21.2022 183.375 21.7017 183.1 22.3551C182.83 23.0085 182.695 23.7992 182.695 24.7273C182.695 25.6932 182.833 26.5028 183.107 27.1562C183.387 27.8049 183.777 28.295 184.279 28.6264C184.786 28.9531 185.385 29.1165 186.076 29.1165C186.464 29.1165 186.817 29.0668 187.134 28.9673C187.456 28.8679 187.738 28.7235 187.979 28.5341C188.226 28.34 188.427 28.1056 188.583 27.831C188.744 27.5516 188.855 27.2367 188.917 26.8864L192.468 26.9077C192.406 27.5516 192.219 28.1861 191.907 28.8111C191.599 29.4361 191.175 30.0066 190.636 30.5227C190.096 31.0341 189.438 31.4413 188.661 31.7443C187.889 32.0473 187.004 32.1989 186.005 32.1989C184.689 32.1989 183.51 31.91 182.468 31.3324C181.431 30.75 180.612 29.9025 180.011 28.7898C179.409 27.6771 179.109 26.3229 179.109 24.7273C179.109 23.1269 179.414 21.7704 180.025 20.6577C180.636 19.545 181.462 18.6998 182.504 18.1222C183.545 17.5445 184.712 17.2557 186.005 17.2557C186.886 17.2557 187.7 17.3788 188.448 17.625C189.196 17.8665 189.854 18.2216 190.423 18.6903C190.991 19.1544 191.452 19.7249 191.808 20.402C192.163 21.0791 192.383 21.8532 192.468 22.7244ZM193.88 32V17.4545H204.022V20.3097H197.395V23.2926H203.503V26.1548H197.395V29.1449H204.022V32H193.88ZM205.624 32V17.4545H211.632C212.721 17.4545 213.661 17.651 214.452 18.044C215.247 18.4323 215.86 18.991 216.291 19.7202C216.722 20.4446 216.937 21.304 216.937 22.2983C216.937 23.3068 216.717 24.1638 216.277 24.8693C215.837 25.5701 215.212 26.1051 214.402 26.4744C213.592 26.839 212.633 27.0213 211.526 27.0213H207.726V24.2514H210.872C211.402 24.2514 211.845 24.1828 212.2 24.0455C212.56 23.9034 212.832 23.6903 213.017 23.4062C213.202 23.1174 213.294 22.7481 213.294 22.2983C213.294 21.8485 213.202 21.4768 213.017 21.1832C212.832 20.8849 212.56 20.6624 212.2 20.5156C211.84 20.3641 211.398 20.2884 210.872 20.2884H209.139V32H205.624ZM213.812 25.3523L217.435 32H213.599L210.048 25.3523H213.812ZM217.79 20.3097V17.4545H230.084V20.3097H225.673V32H222.207V20.3097H217.79ZM231.201 32V17.4545H241.343V20.3097H234.716V23.2926H240.824V26.1548H234.716V29.1449H241.343V32H231.201ZM242.945 32V17.4545H248.953C250.042 17.4545 250.982 17.651 251.773 18.044C252.568 18.4323 253.181 18.991 253.612 19.7202C254.043 20.4446 254.259 21.304 254.259 22.2983C254.259 23.3068 254.038 24.1638 253.598 24.8693C253.158 25.5701 252.533 26.1051 251.723 26.4744C250.913 26.839 249.955 27.0213 248.847 27.0213H245.047V24.2514H248.193C248.723 24.2514 249.166 24.1828 249.521 24.0455C249.881 23.9034 250.153 23.6903 250.338 23.4062C250.523 23.1174 250.615 22.7481 250.615 22.2983C250.615 21.8485 250.523 21.4768 250.338 21.1832C250.153 20.8849 249.881 20.6624 249.521 20.5156C249.161 20.3641 248.719 20.2884 248.193 20.2884H246.46V32H242.945ZM251.134 25.3523L254.756 32H250.92L247.369 25.3523H251.134Z" fill="black"/>
</svg>
