<svg width="394" height="111" viewBox="0 0 394 111" fill="none" xmlns="http://www.w3.org/2000/svg">
<path d="M2 2H392V109H2V2Z" fill="white" stroke="black" stroke-width="4"/>
<path d="M80.4077 46.8743C80.2893 45.5722 79.7625 44.5601 78.8274 43.8381C77.9041 43.1042 76.5843 42.7372 74.8679 42.7372C73.7315 42.7372 72.7846 42.8852 72.027 43.1811C71.2694 43.477 70.7012 43.8854 70.3224 44.4062C69.9437 44.9152 69.7483 45.5012 69.7365 46.1641C69.7128 46.7086 69.8194 47.188 70.0561 47.6023C70.3047 48.0166 70.6598 48.3835 71.1214 48.7031C71.5949 49.0109 72.1631 49.2831 72.826 49.5199C73.4889 49.7566 74.2346 49.9638 75.0632 50.1413L78.1882 50.8516C79.9875 51.2422 81.5736 51.763 82.9467 52.4141C84.3317 53.0651 85.4917 53.8404 86.4268 54.7401C87.3738 55.6397 88.09 56.6754 88.5753 57.8473C89.0606 59.0192 89.3092 60.3331 89.321 61.7891C89.3092 64.0855 88.7292 66.0563 87.581 67.7017C86.4328 69.3471 84.7815 70.6077 82.6271 71.4837C80.4846 72.3596 77.8982 72.7976 74.8679 72.7976C71.8258 72.7976 69.1742 72.3419 66.9134 71.4304C64.6525 70.5189 62.8946 69.134 61.6399 67.2756C60.3852 65.4171 59.7401 63.0675 59.7045 60.2266H68.1207C68.1918 61.3984 68.5054 62.375 69.0618 63.1562C69.6181 63.9375 70.3816 64.5294 71.3523 64.9318C72.3348 65.3343 73.4711 65.5355 74.7614 65.5355C75.9451 65.5355 76.9512 65.3757 77.7798 65.0561C78.6203 64.7365 79.2654 64.2926 79.7152 63.7244C80.165 63.1562 80.3958 62.5052 80.4077 61.7713C80.3958 61.0848 80.1828 60.4988 79.7685 60.0135C79.3542 59.5163 78.715 59.0902 77.8509 58.7351C76.9986 58.3681 75.9096 58.0308 74.5838 57.723L70.7841 56.8352C67.6354 56.1132 65.1555 54.9472 63.3445 53.3374C61.5334 51.7157 60.6338 49.5258 60.6456 46.7678C60.6338 44.5187 61.2375 42.5478 62.4567 40.8551C63.6759 39.1624 65.3627 37.8426 67.517 36.8956C69.6714 35.9486 72.1276 35.4751 74.8857 35.4751C77.7029 35.4751 80.1473 35.9545 82.2188 36.9134C84.3021 37.8603 85.9179 39.192 87.0661 40.9084C88.2143 42.6248 88.8002 44.6134 88.8239 46.8743H80.4077ZM91.0703 43.1101V35.9723H121.805V43.1101H110.779V72.3359H102.114V43.1101H91.0703ZM128.602 74.1648L124.873 71.6435L151.187 34.2145L154.898 36.7358L128.602 74.1648ZM157.259 54.1541C157.259 58.1551 156.49 61.5464 154.951 64.3281C153.412 67.1098 151.329 69.2228 148.701 70.6669C146.085 72.111 143.15 72.8331 139.894 72.8331C136.627 72.8331 133.686 72.1051 131.07 70.6491C128.454 69.1932 126.376 67.0803 124.838 64.3104C123.311 61.5286 122.547 58.1432 122.547 54.1541C122.547 50.1532 123.311 46.7618 124.838 43.9801C126.376 41.1984 128.454 39.0855 131.07 37.6413C133.686 36.1972 136.627 35.4751 139.894 35.4751C143.15 35.4751 146.085 36.1972 148.701 37.6413C151.329 39.0855 153.412 41.1984 154.951 43.9801C156.49 46.7618 157.259 50.1532 157.259 54.1541ZM148.275 54.1541C148.275 51.7867 147.938 49.7862 147.263 48.1527C146.6 46.5192 145.641 45.2822 144.387 44.4418C143.144 43.6013 141.646 43.1811 139.894 43.1811C138.154 43.1811 136.657 43.6013 135.402 44.4418C134.147 45.2822 133.183 46.5192 132.508 48.1527C131.845 49.7862 131.514 51.7867 131.514 54.1541C131.514 56.5215 131.845 58.522 132.508 60.1555C133.183 61.7891 134.147 63.026 135.402 63.8665C136.657 64.7069 138.154 65.1271 139.894 65.1271C141.646 65.1271 143.144 64.7069 144.387 63.8665C145.641 63.026 146.6 61.7891 147.263 60.1555C147.938 58.522 148.275 56.5215 148.275 54.1541ZM158.041 43.1101V35.9723H188.776V43.1101H177.75V72.3359H169.085V43.1101H158.041ZM235.132 54.1541C235.132 58.1551 234.363 61.5464 232.824 64.3281C231.285 67.1098 229.202 69.2228 226.574 70.6669C223.958 72.111 221.023 72.8331 217.767 72.8331C214.5 72.8331 211.559 72.1051 208.943 70.6491C206.327 69.1932 204.249 67.0803 202.711 64.3104C201.184 61.5286 200.42 58.1432 200.42 54.1541C200.42 50.1532 201.184 46.7618 202.711 43.9801C204.249 41.1984 206.327 39.0855 208.943 37.6413C211.559 36.1972 214.5 35.4751 217.767 35.4751C221.023 35.4751 223.958 36.1972 226.574 37.6413C229.202 39.0855 231.285 41.1984 232.824 43.9801C234.363 46.7618 235.132 50.1532 235.132 54.1541ZM226.148 54.1541C226.148 51.7867 225.811 49.7862 225.136 48.1527C224.473 46.5192 223.514 45.2822 222.26 44.4418C221.017 43.6013 219.519 43.1811 217.767 43.1811C216.027 43.1811 214.53 43.6013 213.275 44.4418C212.02 45.2822 211.056 46.5192 210.381 48.1527C209.718 49.7862 209.387 51.7867 209.387 54.1541C209.387 56.5215 209.718 58.522 210.381 60.1555C211.056 61.7891 212.02 63.026 213.275 63.8665C214.53 64.7069 216.027 65.1271 217.767 65.1271C219.519 65.1271 221.017 64.7069 222.26 63.8665C223.514 63.026 224.473 61.7891 225.136 60.1555C225.811 58.522 226.148 56.5215 226.148 54.1541ZM258.419 46.8743C258.301 45.5722 257.774 44.5601 256.839 43.8381C255.916 43.1042 254.596 42.7372 252.88 42.7372C251.743 42.7372 250.796 42.8852 250.039 43.1811C249.281 43.477 248.713 43.8854 248.334 44.4062C247.955 44.9152 247.76 45.5012 247.748 46.1641C247.725 46.7086 247.831 47.188 248.068 47.6023C248.316 48.0166 248.672 48.3835 249.133 48.7031C249.607 49.0109 250.175 49.2831 250.838 49.5199C251.501 49.7566 252.246 49.9638 253.075 50.1413L256.2 50.8516C257.999 51.2422 259.585 51.763 260.958 52.4141C262.343 53.0651 263.503 53.8404 264.439 54.7401C265.386 55.6397 266.102 56.6754 266.587 57.8473C267.072 59.0192 267.321 60.3331 267.333 61.7891C267.321 64.0855 266.741 66.0563 265.593 67.7017C264.444 69.3471 262.793 70.6077 260.639 71.4837C258.496 72.3596 255.91 72.7976 252.88 72.7976C249.837 72.7976 247.186 72.3419 244.925 71.4304C242.664 70.5189 240.906 69.134 239.652 67.2756C238.397 65.4171 237.752 63.0675 237.716 60.2266H246.132C246.203 61.3984 246.517 62.375 247.074 63.1562C247.63 63.9375 248.393 64.5294 249.364 64.9318C250.346 65.3343 251.483 65.5355 252.773 65.5355C253.957 65.5355 254.963 65.3757 255.792 65.0561C256.632 64.7365 257.277 64.2926 257.727 63.7244C258.177 63.1562 258.408 62.5052 258.419 61.7713C258.408 61.0848 258.194 60.4988 257.78 60.0135C257.366 59.5163 256.727 59.0902 255.863 58.7351C255.01 58.3681 253.921 58.0308 252.596 57.723L248.796 56.8352C245.647 56.1132 243.167 54.9472 241.356 53.3374C239.545 51.7157 238.645 49.5258 238.657 46.7678C238.645 44.5187 239.249 42.5478 240.468 40.8551C241.688 39.1624 243.374 37.8426 245.529 36.8956C247.683 35.9486 250.139 35.4751 252.897 35.4751C255.715 35.4751 258.159 35.9545 260.23 36.9134C262.314 37.8603 263.93 39.192 265.078 40.9084C266.226 42.6248 266.812 44.6134 266.836 46.8743H258.419ZM302.33 72.9041L284.077 54.6513C282.621 53.1953 281.65 51.5026 281.165 49.5732C280.692 47.6437 280.698 45.7261 281.183 43.8203C281.668 41.9027 282.633 40.2337 284.077 38.8132C285.557 37.3572 287.243 36.3925 289.137 35.919C291.043 35.4337 292.943 35.4337 294.837 35.919C296.743 36.4044 298.435 37.3691 299.915 38.8132L302.33 41.157L304.745 38.8132C306.236 37.3691 307.929 36.4044 309.823 35.919C311.717 35.4337 313.611 35.4337 315.505 35.919C317.41 36.3925 319.103 37.3572 320.583 38.8132C322.027 40.2337 322.992 41.9027 323.477 43.8203C323.962 45.7261 323.962 47.6437 323.477 49.5732C323.003 51.5026 322.039 53.1953 320.583 54.6513L302.33 72.9041Z" fill="black"/>
</svg>
