<svg width="413" height="97" viewBox="0 0 413 97" fill="none" xmlns="http://www.w3.org/2000/svg">
<path d="M2 2H410.292V95H2V2Z" fill="white" stroke="black" stroke-width="4"/>
<path d="M51.7521 69V32.6364H60.5412V47.2315H74.87V32.6364H83.6413V69H74.87V54.3871H60.5412V69H51.7521ZM95.9109 32.6364L104.043 59.2699H104.345L112.477 32.6364H122.314L110.044 69H98.3434L86.0742 32.6364H95.9109ZM124.729 69V32.6364H150.084V39.7741H133.518V47.2315H148.788V54.3871H133.518V61.8622H150.084V69H124.729ZM154.088 32.6364H164.972L174.205 55.1506H174.631L183.864 32.6364H194.749V69H186.19V46.6634H185.888L177.153 68.7692H171.684L162.948 46.5391H162.646V69H154.088V32.6364ZM207.973 69V32.6364H233.328V39.7741H216.762V47.2315H232.032V54.3871H216.762V61.8622H233.328V69H207.973ZM237.332 69V32.6364H252.354C255.076 32.6364 257.426 33.1276 259.403 34.1101C261.391 35.0807 262.924 36.4775 264.001 38.3004C265.078 40.1115 265.617 42.2599 265.617 44.7457C265.617 47.267 265.067 49.4096 263.966 51.1733C262.865 52.9252 261.302 54.2628 259.278 55.1861C257.254 56.0975 254.857 56.5533 252.087 56.5533H242.588V49.6286H250.454C251.779 49.6286 252.886 49.4569 253.774 49.1136C254.674 48.7585 255.354 48.2259 255.816 47.5156C256.278 46.7936 256.508 45.8703 256.508 44.7457C256.508 43.6212 256.278 42.692 255.816 41.9581C255.354 41.2124 254.674 40.656 253.774 40.2891C252.874 39.9103 251.768 39.7209 250.454 39.7209H246.121V69H237.332ZM257.805 52.3807L266.86 69H257.272L248.394 52.3807H257.805ZM286.436 32.6364L294.568 59.2699H294.87L303.002 32.6364H312.839L300.57 69H288.869L276.6 32.6364H286.436ZM324.043 32.6364V69H315.254V32.6364H324.043ZM334.897 57.8672V57.1392C334.897 55.1269 335.062 53.523 335.394 52.3274C335.737 51.1319 336.234 50.1731 336.885 49.451C337.536 48.7171 338.329 48.0483 339.265 47.4446C340.01 46.9711 340.673 46.4917 341.253 46.0064C341.845 45.5092 342.313 44.9766 342.656 44.4084C342.999 43.8402 343.171 43.1951 343.171 42.473C343.171 41.7746 343.005 41.1591 342.674 40.6264C342.342 40.0937 341.886 39.6854 341.306 39.4013C340.738 39.1053 340.105 38.9574 339.407 38.9574C338.708 38.9574 338.051 39.1172 337.436 39.4368C336.832 39.7564 336.335 40.2121 335.944 40.804C335.565 41.384 335.37 42.0883 335.358 42.9169H327.191C327.226 40.4311 327.8 38.3951 328.913 36.8089C330.038 35.2228 331.523 34.0509 333.37 33.2933C335.216 32.5239 337.252 32.1392 339.478 32.1392C341.916 32.1392 344.082 32.518 345.976 33.2756C347.882 34.0331 349.379 35.1518 350.468 36.6314C351.557 38.111 352.102 39.9221 352.102 42.0646C352.102 43.4732 351.865 44.7161 351.392 45.7933C350.918 46.8705 350.255 47.8234 349.403 48.652C348.563 49.4687 347.574 50.2145 346.438 50.8892C345.55 51.41 344.81 51.9545 344.218 52.5227C343.638 53.0909 343.2 53.742 342.904 54.4759C342.609 55.1979 342.461 56.0857 342.461 57.1392V57.8672H334.897ZM338.821 69.5149C337.542 69.5149 336.447 69.0651 335.536 68.1655C334.636 67.2659 334.192 66.1768 334.204 64.8984C334.192 63.6437 334.636 62.5724 335.536 61.6847C336.447 60.785 337.542 60.3352 338.821 60.3352C340.04 60.3352 341.111 60.785 342.034 61.6847C342.958 62.5724 343.425 63.6437 343.437 64.8984C343.425 65.7507 343.2 66.526 342.762 67.2244C342.336 67.9228 341.774 68.4792 341.076 68.8935C340.389 69.3078 339.637 69.5149 338.821 69.5149Z" fill="black"/>
</svg>
