<svg width="354" height="144" viewBox="0 0 354 144" fill="none" xmlns="http://www.w3.org/2000/svg">
<path d="M2 2H352V142H2V2Z" fill="white" stroke="black" stroke-width="4"/>
<path d="M45.7521 72V35.6364H60.9155C63.638 35.6364 65.9167 36.0211 67.7514 36.7905C69.598 37.5599 70.983 38.6371 71.9062 40.022C72.8414 41.407 73.3089 43.0109 73.3089 44.8338C73.3089 46.2188 73.0189 47.4557 72.4389 48.5447C71.8589 49.6219 71.0599 50.5156 70.0419 51.2259C69.0239 51.9361 67.8461 52.4332 66.5085 52.7173V53.0724C67.9763 53.1435 69.3317 53.54 70.5746 54.2621C71.8293 54.9841 72.8355 55.9903 73.593 57.2805C74.3506 58.5589 74.7294 60.0741 74.7294 61.826C74.7294 63.7791 74.2322 65.5251 73.2379 67.0639C72.2436 68.5909 70.8054 69.7983 68.9233 70.6861C67.0412 71.562 64.7566 72 62.0696 72H45.7521ZM54.5412 64.9155H59.9744C61.8802 64.9155 63.2829 64.5545 64.1825 63.8324C65.094 63.1103 65.5497 62.1042 65.5497 60.8139C65.5497 59.8788 65.3307 59.0739 64.8928 58.3991C64.4548 57.7126 63.8333 57.1858 63.0284 56.8189C62.2235 56.4401 61.2588 56.2507 60.1342 56.2507H54.5412V64.9155ZM54.5412 50.5866H59.4062C60.3651 50.5866 61.2173 50.4268 61.9631 50.1072C62.7088 49.7876 63.2888 49.326 63.7031 48.7223C64.1293 48.1186 64.3423 47.3906 64.3423 46.5384C64.3423 45.3191 63.9103 44.3603 63.0462 43.6619C62.1821 42.9635 61.0161 42.6143 59.5483 42.6143H54.5412V50.5866ZM77.4553 72V35.6364H102.81V42.7741H86.2443V50.2315H101.514V57.3871H86.2443V64.8622H102.81V72H77.4553ZM106.815 72V35.6364H115.604V50.2315H129.933V35.6364H138.704V72H129.933V57.3871H115.604V72H106.815ZM151.506 35.6364V72H142.717V35.6364H151.506ZM186.472 35.6364V72H179.014L164.544 51.0128H164.313V72H155.524V35.6364H163.088L177.399 56.5881H177.7V35.6364H186.472ZM203.939 72H190.498V35.6364H203.922C207.627 35.6364 210.817 36.3643 213.492 37.8203C216.179 39.2644 218.25 41.3478 219.706 44.0703C221.162 46.781 221.89 50.0244 221.89 53.8004C221.89 57.5883 221.162 60.8435 219.706 63.5661C218.262 66.2886 216.197 68.3778 213.51 69.8338C210.823 71.2779 207.632 72 203.939 72ZM199.287 64.5071H203.602C205.638 64.5071 207.36 64.1638 208.769 63.4773C210.189 62.7789 211.261 61.6484 211.983 60.0859C212.717 58.5116 213.083 56.4164 213.083 53.8004C213.083 51.1844 212.717 49.1011 211.983 47.5504C211.249 45.9879 210.166 44.8634 208.733 44.1768C207.313 43.4785 205.561 43.1293 203.478 43.1293H199.287V64.5071ZM233.574 42.7741V35.6364H264.309V42.7741H253.283V72H244.618V42.7741H233.574ZM267.102 72V35.6364H275.891V50.2315H290.22V35.6364H298.991V72H290.22V57.3871H275.891V72H267.102ZM303.004 72V35.6364H328.359V42.7741H311.793V50.2315H327.063V57.3871H311.793V64.8622H328.359V72H303.004ZM65.4077 96.5384C65.2893 95.2363 64.7625 94.2242 63.8274 93.5021C62.9041 92.7682 61.5843 92.4013 59.8679 92.4013C58.7315 92.4013 57.7846 92.5492 57.027 92.8452C56.2694 93.1411 55.7012 93.5495 55.3224 94.0703C54.9437 94.5793 54.7483 95.1652 54.7365 95.8281C54.7128 96.3726 54.8194 96.852 55.0561 97.2663C55.3047 97.6806 55.6598 98.0476 56.1214 98.3672C56.5949 98.675 57.1631 98.9472 57.826 99.1839C58.4889 99.4207 59.2346 99.6278 60.0632 99.8054L63.1882 100.516C64.9875 100.906 66.5736 101.427 67.9467 102.078C69.3317 102.729 70.4917 103.504 71.4268 104.404C72.3738 105.304 73.09 106.339 73.5753 107.511C74.0606 108.683 74.3092 109.997 74.321 111.453C74.3092 113.75 73.7292 115.72 72.581 117.366C71.4328 119.011 69.7815 120.272 67.6271 121.148C65.4846 122.024 62.8982 122.462 59.8679 122.462C56.8258 122.462 54.1742 122.006 51.9134 121.094C49.6525 120.183 47.8946 118.798 46.6399 116.94C45.3852 115.081 44.7401 112.732 44.7045 109.891H53.1207C53.1918 111.062 53.5054 112.039 54.0618 112.82C54.6181 113.602 55.3816 114.193 56.3523 114.596C57.3348 114.998 58.4711 115.2 59.7614 115.2C60.9451 115.2 61.9512 115.04 62.7798 114.72C63.6203 114.401 64.2654 113.957 64.7152 113.388C65.165 112.82 65.3958 112.169 65.4077 111.435C65.3958 110.749 65.1828 110.163 64.7685 109.678C64.3542 109.18 63.715 108.754 62.8509 108.399C61.9986 108.032 60.9096 107.695 59.5838 107.387L55.7841 106.499C52.6354 105.777 50.1555 104.611 48.3445 103.001C46.5334 101.38 45.6338 99.1899 45.6456 96.4318C45.6338 94.1828 46.2375 92.2119 47.4567 90.5192C48.6759 88.8265 50.3627 87.5066 52.517 86.5597C54.6714 85.6127 57.1276 85.1392 59.8857 85.1392C62.7029 85.1392 65.1473 85.6186 67.2188 86.5774C69.3021 87.5244 70.9179 88.8561 72.0661 90.5724C73.2143 92.2888 73.8002 94.2775 73.8239 96.5384H65.4077ZM110.268 98.8111H101.39C101.272 97.8996 101.029 97.0769 100.662 96.343C100.295 95.6091 99.8097 94.9818 99.206 94.4609C98.6023 93.9401 97.8861 93.5436 97.0575 93.2713C96.2408 92.9872 95.3352 92.8452 94.3409 92.8452C92.5772 92.8452 91.0561 93.2772 89.7777 94.1413C88.5111 95.0054 87.5346 96.2543 86.848 97.8878C86.1733 99.5213 85.8359 101.498 85.8359 103.818C85.8359 106.233 86.1792 108.257 86.8658 109.891C87.5642 111.512 88.5407 112.737 89.7955 113.566C91.062 114.383 92.5594 114.791 94.2876 114.791C95.2583 114.791 96.1402 114.667 96.9332 114.418C97.7382 114.17 98.4425 113.809 99.0462 113.335C99.6617 112.85 100.165 112.264 100.555 111.577C100.958 110.879 101.236 110.092 101.39 109.216L110.268 109.269C110.114 110.879 109.646 112.465 108.865 114.028C108.096 115.59 107.036 117.017 105.687 118.307C104.337 119.585 102.692 120.603 100.751 121.361C98.8213 122.118 96.6077 122.497 94.1101 122.497C90.8194 122.497 87.8719 121.775 85.2678 120.331C82.6754 118.875 80.6276 116.756 79.1243 113.974C77.621 111.193 76.8693 107.807 76.8693 103.818C76.8693 99.8172 77.6328 96.4259 79.1598 93.6442C80.6868 90.8625 82.7524 88.7495 85.3565 87.3054C87.9607 85.8613 90.8786 85.1392 94.1101 85.1392C96.3118 85.1392 98.3478 85.447 100.218 86.0625C102.088 86.6662 103.734 87.554 105.154 88.7259C106.575 89.8859 107.729 91.3123 108.616 93.005C109.504 94.6977 110.055 96.633 110.268 98.8111ZM113.797 122V85.6364H139.152V92.7741H122.586V100.232H137.856V107.387H122.586V114.862H139.152V122H113.797ZM174.105 85.6364V122H166.647L152.176 101.013H151.945V122H143.156V85.6364H150.72L165.031 106.588H165.333V85.6364H174.105ZM178.131 122V85.6364H203.486V92.7741H186.92V100.232H202.19V107.387H186.92V114.862H203.486V122H178.131ZM227.146 96.5384C227.028 95.2363 226.501 94.2242 225.566 93.5021C224.642 92.7682 223.323 92.4013 221.606 92.4013C220.47 92.4013 219.523 92.5492 218.765 92.8452C218.008 93.1411 217.44 93.5495 217.061 94.0703C216.682 94.5793 216.487 95.1652 216.475 95.8281C216.451 96.3726 216.558 96.852 216.794 97.2663C217.043 97.6806 217.398 98.0476 217.86 98.3672C218.333 98.675 218.901 98.9472 219.564 99.1839C220.227 99.4207 220.973 99.6278 221.801 99.8054L224.926 100.516C226.726 100.906 228.312 101.427 229.685 102.078C231.07 102.729 232.23 103.504 233.165 104.404C234.112 105.304 234.828 106.339 235.314 107.511C235.799 108.683 236.047 109.997 236.059 111.453C236.047 113.75 235.467 115.72 234.319 117.366C233.171 119.011 231.52 120.272 229.365 121.148C227.223 122.024 224.636 122.462 221.606 122.462C218.564 122.462 215.913 122.006 213.652 121.094C211.391 120.183 209.633 118.798 208.378 116.94C207.123 115.081 206.478 112.732 206.443 109.891H214.859C214.93 111.062 215.244 112.039 215.8 112.82C216.356 113.602 217.12 114.193 218.091 114.596C219.073 114.998 220.209 115.2 221.5 115.2C222.683 115.2 223.69 115.04 224.518 114.72C225.359 114.401 226.004 113.957 226.453 113.388C226.903 112.82 227.134 112.169 227.146 111.435C227.134 110.749 226.921 110.163 226.507 109.678C226.092 109.18 225.453 108.754 224.589 108.399C223.737 108.032 222.648 107.695 221.322 107.387L217.522 106.499C214.374 105.777 211.894 104.611 210.083 103.001C208.272 101.38 207.372 99.1899 207.384 96.4318C207.372 94.1828 207.976 92.2119 209.195 90.5192C210.414 88.8265 212.101 87.5066 214.255 86.5597C216.41 85.6127 218.866 85.1392 221.624 85.1392C224.441 85.1392 226.886 85.6186 228.957 86.5774C231.04 87.5244 232.656 88.8561 233.804 90.5724C234.953 92.2888 235.538 94.2775 235.562 96.5384H227.146Z" fill="black"/>
</svg>
