<svg width="394" height="140" viewBox="0 0 394 140" fill="none" xmlns="http://www.w3.org/2000/svg">
<path d="M2 2H392V138H2V2Z" fill="white" stroke="black" stroke-width="4"/>
<path d="M62.5444 41.2298C62.426 39.9277 61.8993 38.9156 60.9641 38.1935C60.0408 37.4596 58.721 37.0927 57.0046 37.0927C55.8683 37.0927 54.9213 37.2406 54.1637 37.5366C53.4061 37.8325 52.8379 38.2409 52.4592 38.7617C52.0804 39.2707 51.8851 39.8567 51.8732 40.5195C51.8496 41.064 51.9561 41.5434 52.1928 41.9577C52.4414 42.372 52.7965 42.739 53.2582 43.0586C53.7317 43.3664 54.2998 43.6386 54.9627 43.8754C55.6256 44.1121 56.3713 44.3192 57.1999 44.4968L60.3249 45.207C62.1242 45.5977 63.7103 46.1185 65.0835 46.7695C66.4684 47.4206 67.6284 48.1959 68.5636 49.0955C69.5105 49.9951 70.2267 51.0309 70.712 52.2028C71.1973 53.3746 71.4459 54.6886 71.4577 56.1445C71.4459 58.4409 70.8659 60.4118 69.7177 62.0572C68.5695 63.7025 66.9182 64.9632 64.7638 65.8391C62.6213 66.7151 60.0349 67.1531 57.0046 67.1531C53.9625 67.1531 51.311 66.6973 49.0501 65.7859C46.7892 64.8744 45.0314 63.4895 43.7766 61.631C42.5219 59.7726 41.8768 57.4229 41.8413 54.582H50.2575C50.3285 55.7539 50.6422 56.7305 51.1985 57.5117C51.7549 58.293 52.5183 58.8848 53.489 59.2873C54.4715 59.6897 55.6078 59.891 56.8981 59.891C58.0818 59.891 59.088 59.7312 59.9165 59.4116C60.757 59.092 61.4021 58.6481 61.8519 58.0799C62.3017 57.5117 62.5326 56.8607 62.5444 56.1268C62.5326 55.4402 62.3195 54.8543 61.9052 54.369C61.4909 53.8718 60.8517 53.4457 59.9876 53.0906C59.1353 52.7236 58.0463 52.3862 56.7205 52.0785L52.9208 51.1907C49.7721 50.4686 47.2923 49.3027 45.4812 47.6928C43.6701 46.0711 42.7705 43.8813 42.7823 41.1232C42.7705 38.8742 43.3742 36.9033 44.5934 35.2106C45.8126 33.5179 47.4994 32.198 49.6538 31.2511C51.8081 30.3041 54.2643 29.8306 57.0224 29.8306C59.8396 29.8306 62.284 30.31 64.3555 31.2688C66.4388 32.2158 68.0546 33.5475 69.2028 35.2638C70.351 36.9802 70.9369 38.9689 70.9606 41.2298H62.5444ZM74.3967 66.6914V30.3278H83.1857V44.9229H97.5146V30.3278H106.286V66.6914H97.5146V52.0785H83.1857V66.6914H74.3967ZM118.165 66.6914H108.719L120.988 30.3278H132.689L144.958 66.6914H135.512L126.972 39.4897H126.688L118.165 66.6914ZM116.904 52.3803H136.648V59.0565H116.904V52.3803ZM147.373 66.6914V30.3278H162.395C165.117 30.3278 167.467 30.819 169.444 31.8015C171.432 32.7721 172.965 34.1689 174.042 35.9918C175.119 37.8029 175.658 39.9513 175.658 42.4371C175.658 44.9585 175.108 47.101 174.007 48.8647C172.906 50.6166 171.343 51.9542 169.319 52.8775C167.295 53.7889 164.898 54.2447 162.128 54.2447H152.629V47.32H160.495C161.82 47.32 162.927 47.1483 163.815 46.805C164.715 46.4499 165.395 45.9173 165.857 45.207C166.319 44.485 166.549 43.5617 166.549 42.4371C166.549 41.3126 166.319 40.3834 165.857 39.6495C165.395 38.9038 164.715 38.3474 163.815 37.9805C162.915 37.6017 161.809 37.4123 160.495 37.4123H156.162V66.6914H147.373ZM167.846 50.0721L176.901 66.6914H167.313L158.435 50.0721H167.846ZM178.979 66.6914V30.3278H204.334V37.4656H187.768V44.9229H203.038V52.0785H187.768V59.5536H204.334V66.6914H178.979ZM215.769 30.3278H225.588L233.276 45.5444H233.596L241.284 30.3278H251.103L237.804 54.5465V66.6914H229.068V54.5465L215.769 30.3278ZM285.216 48.5096C285.216 52.5105 284.447 55.9019 282.908 58.6836C281.369 61.4653 279.286 63.5782 276.658 65.0224C274.042 66.4665 271.107 67.1886 267.851 67.1886C264.584 67.1886 261.643 66.4606 259.027 65.0046C256.411 63.5487 254.333 61.4357 252.795 58.6658C251.268 55.8841 250.504 52.4987 250.504 48.5096C250.504 44.5086 251.268 41.1173 252.795 38.3356C254.333 35.5539 256.411 33.4409 259.027 31.9968C261.643 30.5527 264.584 29.8306 267.851 29.8306C271.107 29.8306 274.042 30.5527 276.658 31.9968C279.286 33.4409 281.369 35.5539 282.908 38.3356C284.447 41.1173 285.216 44.5086 285.216 48.5096ZM276.232 48.5096C276.232 46.1422 275.895 44.1417 275.22 42.5082C274.557 40.8746 273.598 39.6377 272.344 38.7972C271.101 37.9568 269.603 37.5366 267.851 37.5366C266.111 37.5366 264.614 37.9568 263.359 38.7972C262.104 39.6377 261.14 40.8746 260.465 42.5082C259.802 44.1417 259.471 46.1422 259.471 48.5096C259.471 50.877 259.802 52.8775 260.465 54.511C261.14 56.1445 262.104 57.3815 263.359 58.2219C264.614 59.0624 266.111 59.4826 267.851 59.4826C269.603 59.4826 271.101 59.0624 272.344 58.2219C273.598 57.3815 274.557 56.1445 275.22 54.511C275.895 52.8775 276.232 50.877 276.232 48.5096ZM310.847 30.3278H319.618V53.783C319.618 56.4937 318.973 58.8552 317.683 60.8675C316.393 62.868 314.594 64.4187 312.285 65.5195C309.977 66.6085 307.296 67.1531 304.242 67.1531C301.153 67.1531 298.454 66.6085 296.145 65.5195C293.837 64.4187 292.044 62.868 290.765 60.8675C289.487 58.8552 288.848 56.4937 288.848 53.783V30.3278H297.637V53.0195C297.637 54.2743 297.909 55.3929 298.454 56.3754C299.01 57.3578 299.785 58.1272 300.78 58.6836C301.774 59.2399 302.928 59.5181 304.242 59.5181C305.556 59.5181 306.704 59.2399 307.687 58.6836C308.681 58.1272 309.456 57.3578 310.013 56.3754C310.569 55.3929 310.847 54.2743 310.847 53.0195V30.3278ZM323.627 66.6914V30.3278H338.648C341.371 30.3278 343.721 30.819 345.697 31.8015C347.686 32.7721 349.219 34.1689 350.296 35.9918C351.373 37.8029 351.912 39.9513 351.912 42.4371C351.912 44.9585 351.362 47.101 350.261 48.8647C349.16 50.6166 347.597 51.9542 345.573 52.8775C343.549 53.7889 341.152 54.2447 338.382 54.2447H328.883V47.32H336.749C338.074 47.32 339.181 47.1483 340.069 46.805C340.969 46.4499 341.649 45.9173 342.111 45.207C342.572 44.485 342.803 43.5617 342.803 42.4371C342.803 41.3126 342.572 40.3834 342.111 39.6495C341.649 38.9038 340.969 38.3474 340.069 37.9805C339.169 37.6017 338.063 37.4123 336.749 37.4123H332.416V66.6914H323.627ZM344.099 50.0721L353.155 66.6914H343.567L334.689 50.0721H344.099ZM42.8888 80.3278H53.7731L63.006 102.842H63.4322L72.6651 80.3278H83.5494V116.691H74.9911V94.3548H74.6893L65.9535 116.461H60.4847L51.7489 94.2305H51.4471V116.691H42.8888V80.3278ZM87.5314 116.691V80.3278H112.887V87.4656H96.3205V94.9229H111.59V102.078H96.3205V109.554H112.887V116.691H87.5314ZM116.891 80.3278H127.775L137.008 102.842H137.434L146.667 80.3278H157.551V116.691H148.993V94.3548H148.691L139.955 116.461H134.487L125.751 94.2305H125.449V116.691H116.891V80.3278ZM195.855 98.5096C195.855 102.511 195.086 105.902 193.547 108.684C192.008 111.465 189.925 113.578 187.297 115.022C184.681 116.467 181.745 117.189 178.49 117.189C175.223 117.189 172.281 116.461 169.665 115.005C167.049 113.549 164.972 111.436 163.433 108.666C161.906 105.884 161.143 102.499 161.143 98.5096C161.143 94.5086 161.906 91.1173 163.433 88.3356C164.972 85.5539 167.049 83.4409 169.665 81.9968C172.281 80.5527 175.223 79.8306 178.49 79.8306C181.745 79.8306 184.681 80.5527 187.297 81.9968C189.925 83.4409 192.008 85.5539 193.547 88.3356C195.086 91.1173 195.855 94.5086 195.855 98.5096ZM186.871 98.5096C186.871 96.1422 186.533 94.1417 185.859 92.5082C185.196 90.8746 184.237 89.6377 182.982 88.7972C181.739 87.9568 180.242 87.5366 178.49 87.5366C176.75 87.5366 175.253 87.9568 173.998 88.7972C172.743 89.6377 171.778 90.8746 171.104 92.5082C170.441 94.1417 170.109 96.1422 170.109 98.5096C170.109 100.877 170.441 102.877 171.104 104.511C171.778 106.145 172.743 107.382 173.998 108.222C175.253 109.062 176.75 109.483 178.49 109.483C180.242 109.483 181.739 109.062 182.982 108.222C184.237 107.382 185.196 106.145 185.859 104.511C186.533 102.877 186.871 100.877 186.871 98.5096ZM199.487 116.691V80.3278H214.508C217.23 80.3278 219.58 80.819 221.557 81.8015C223.545 82.7721 225.078 84.1689 226.156 85.9918C227.233 87.8029 227.771 89.9513 227.771 92.4371C227.771 94.9585 227.221 97.101 226.12 98.8647C225.019 100.617 223.457 101.954 221.433 102.877C219.408 103.789 217.011 104.245 214.241 104.245H204.742V97.32H212.608C213.934 97.32 215.04 97.1483 215.928 96.805C216.828 96.4499 217.509 95.9173 217.97 95.207C218.432 94.485 218.663 93.5617 218.663 92.4371C218.663 91.3126 218.432 90.3834 217.97 89.6495C217.509 88.9038 216.828 88.3474 215.928 87.9805C215.029 87.6017 213.922 87.4123 212.608 87.4123H208.276V116.691H199.487ZM219.959 100.072L229.014 116.691H219.426L210.548 100.072H219.959ZM239.881 80.3278V116.691H231.092V80.3278H239.881ZM243.899 116.691V80.3278H269.254V87.4656H252.688V94.9229H267.958V102.078H252.688V109.554H269.254V116.691H243.899ZM292.914 91.2298C292.795 89.9277 292.268 88.9156 291.333 88.1935C290.41 87.4596 289.09 87.0927 287.374 87.0927C286.237 87.0927 285.29 87.2406 284.533 87.5366C283.775 87.8325 283.207 88.2409 282.828 88.7617C282.45 89.2707 282.254 89.8567 282.242 90.5195C282.219 91.064 282.325 91.5434 282.562 91.9577C282.811 92.372 283.166 92.739 283.627 93.0586C284.101 93.3664 284.669 93.6386 285.332 93.8754C285.995 94.1121 286.74 94.3192 287.569 94.4968L290.694 95.207C292.493 95.5977 294.079 96.1185 295.453 96.7695C296.838 97.4206 297.998 98.1959 298.933 99.0955C299.88 99.9951 300.596 101.031 301.081 102.203C301.566 103.375 301.815 104.689 301.827 106.145C301.815 108.441 301.235 110.412 300.087 112.057C298.939 113.703 297.287 114.963 295.133 115.839C292.99 116.715 290.404 117.153 287.374 117.153C284.332 117.153 281.68 116.697 279.419 115.786C277.158 114.874 275.401 113.489 274.146 111.631C272.891 109.773 272.246 107.423 272.21 104.582H280.627C280.698 105.754 281.011 106.73 281.568 107.512C282.124 108.293 282.887 108.885 283.858 109.287C284.841 109.69 285.977 109.891 287.267 109.891C288.451 109.891 289.457 109.731 290.286 109.412C291.126 109.092 291.771 108.648 292.221 108.08C292.671 107.512 292.902 106.861 292.914 106.127C292.902 105.44 292.689 104.854 292.274 104.369C291.86 103.872 291.221 103.446 290.357 103.091C289.504 102.724 288.415 102.386 287.09 102.078L283.29 101.191C280.141 100.469 277.661 99.3027 275.85 97.6928C274.039 96.0711 273.14 93.8813 273.151 91.1232C273.14 88.8742 273.743 86.9033 274.963 85.2106C276.182 83.5179 277.869 82.198 280.023 81.2511C282.177 80.3041 284.633 79.8306 287.392 79.8306C290.209 79.8306 292.653 80.31 294.725 81.2688C296.808 82.2158 298.424 83.5475 299.572 85.2638C300.72 86.9802 301.306 88.9689 301.33 91.2298H292.914Z" fill="black"/>
</svg>
