<svg width="310" height="97" viewBox="0 0 310 97" fill="none" xmlns="http://www.w3.org/2000/svg">
<path d="M2 2H308V95H2V2Z" fill="white" stroke="black" stroke-width="4"/>
<path d="M53.6932 68.5H40.2521V32.1364H53.6754C57.3804 32.1364 60.5705 32.8643 63.2457 34.3203C65.9328 35.7644 68.0043 37.8478 69.4602 40.5703C70.9162 43.281 71.6442 46.5244 71.6442 50.3004C71.6442 54.0883 70.9162 57.3435 69.4602 60.0661C68.0161 62.7886 65.9505 64.8778 63.2635 66.3338C60.5765 67.7779 57.3864 68.5 53.6932 68.5ZM49.0412 61.0071H53.3558C55.3918 61.0071 57.1141 60.6638 58.5227 59.9773C59.9432 59.2789 61.0144 58.1484 61.7365 56.5859C62.4704 55.0116 62.8374 52.9164 62.8374 50.3004C62.8374 47.6844 62.4704 45.6011 61.7365 44.0504C61.0026 42.4879 59.9195 41.3634 58.4872 40.6768C57.0668 39.9785 55.3149 39.6293 53.2315 39.6293H49.0412V61.0071ZM75.2756 68.5V32.1364H100.631V39.2741H84.0646V46.7315H99.3345V53.8871H84.0646V61.3622H100.631V68.5H75.2756ZM103.445 39.2741V32.1364H134.18V39.2741H123.154V68.5H114.489V39.2741H103.445ZM165.871 43.0384C165.752 41.7363 165.225 40.7242 164.29 40.0021C163.367 39.2682 162.047 38.9013 160.331 38.9013C159.194 38.9013 158.247 39.0492 157.49 39.3452C156.732 39.6411 156.164 40.0495 155.785 40.5703C155.407 41.0793 155.211 41.6652 155.199 42.3281C155.176 42.8726 155.282 43.352 155.519 43.7663C155.768 44.1806 156.123 44.5476 156.584 44.8672C157.058 45.175 157.626 45.4472 158.289 45.6839C158.952 45.9207 159.698 46.1278 160.526 46.3054L163.651 47.0156C165.45 47.4062 167.037 47.9271 168.41 48.5781C169.795 49.2292 170.955 50.0045 171.89 50.9041C172.837 51.8037 173.553 52.8395 174.038 54.0114C174.523 55.1832 174.772 56.4972 174.784 57.9531C174.772 60.2495 174.192 62.2204 173.044 63.8658C171.896 65.5111 170.244 66.7718 168.09 67.6477C165.948 68.5237 163.361 68.9616 160.331 68.9616C157.289 68.9616 154.637 68.5059 152.376 67.5945C150.115 66.683 148.358 65.2981 147.103 63.4396C145.848 61.5812 145.203 59.2315 145.167 56.3906H153.584C153.655 57.5625 153.968 58.5391 154.525 59.3203C155.081 60.1016 155.845 60.6934 156.815 61.0959C157.798 61.4983 158.934 61.6996 160.224 61.6996C161.408 61.6996 162.414 61.5398 163.243 61.2202C164.083 60.9006 164.728 60.4567 165.178 59.8885C165.628 59.3203 165.859 58.6693 165.871 57.9354C165.859 57.2488 165.646 56.6629 165.231 56.1776C164.817 55.6804 164.178 55.2543 163.314 54.8991C162.461 54.5322 161.372 54.1948 160.047 53.8871L156.247 52.9993C153.098 52.2772 150.618 51.1113 148.807 49.5014C146.996 47.8797 146.097 45.6899 146.108 42.9318C146.097 40.6828 146.7 38.7119 147.92 37.0192C149.139 35.3265 150.826 34.0066 152.98 33.0597C155.134 32.1127 157.59 31.6392 160.349 31.6392C163.166 31.6392 165.61 32.1186 167.682 33.0774C169.765 34.0244 171.381 35.3561 172.529 37.0724C173.677 38.7888 174.263 40.7775 174.287 43.0384H165.871ZM177.723 68.5V32.1364H186.512V47.5128H186.991L199.012 32.1364H209.363L196.473 48.3651L209.594 68.5H199.083L190.028 54.2067L186.512 58.6456V68.5H177.723ZM211.33 68.5V32.1364H236.685V39.2741H220.119V46.7315H235.389V53.8871H220.119V61.3622H236.685V68.5H211.33ZM240.69 68.5V32.1364H255.711C258.433 32.1364 260.783 32.6276 262.76 33.6101C264.749 34.5807 266.281 35.9775 267.359 37.8004C268.436 39.6115 268.974 41.7599 268.974 44.2457C268.974 46.767 268.424 48.9096 267.323 50.6733C266.222 52.4252 264.66 53.7628 262.636 54.6861C260.612 55.5975 258.214 56.0533 255.445 56.0533H245.945V49.1286H253.811C255.137 49.1286 256.244 48.9569 257.131 48.6136C258.031 48.2585 258.712 47.7259 259.173 47.0156C259.635 46.2936 259.866 45.3703 259.866 44.2457C259.866 43.1212 259.635 42.192 259.173 41.4581C258.712 40.7124 258.031 40.156 257.131 39.7891C256.232 39.4103 255.125 39.2209 253.811 39.2209H249.479V68.5H240.69ZM261.162 51.8807L270.217 68.5H260.629L251.751 51.8807H261.162Z" fill="black"/>
</svg>
