<svg width="165" height="53" viewBox="0 0 165 53" fill="none" xmlns="http://www.w3.org/2000/svg">
<path d="M1.11579 1.11579H163.463V51.8842H1.11579V1.11579Z" fill="white" stroke="black" stroke-width="2.23158"/>
<path d="M39.0099 17.4545H42.4759V27.5114C42.4711 28.4536 42.2462 29.2775 41.8011 29.983C41.3561 30.6837 40.7405 31.2282 39.9545 31.6165C39.1733 32.0047 38.2689 32.1989 37.2415 32.1989C36.3324 32.1989 35.5062 32.0402 34.7628 31.723C34.0241 31.4058 33.4347 30.9134 32.9943 30.2457C32.5587 29.5781 32.3433 28.7235 32.348 27.6818H35.8494C35.8636 28.0559 35.9347 28.3755 36.0625 28.6406C36.1951 28.901 36.3774 29.0975 36.6094 29.2301C36.8414 29.3627 37.1184 29.429 37.4403 29.429C37.7765 29.429 38.0606 29.358 38.2926 29.2159C38.5246 29.0691 38.6998 28.8537 38.8182 28.5696C38.9413 28.2855 39.0052 27.9328 39.0099 27.5114V17.4545ZM57.8116 24.7273C57.8116 26.3277 57.5038 27.6842 56.8883 28.7969C56.2728 29.9096 55.4394 30.7547 54.3883 31.3324C53.3419 31.91 52.1676 32.1989 50.8656 32.1989C49.5587 32.1989 48.3821 31.9077 47.3357 31.3253C46.2893 30.7429 45.4584 29.8977 44.8428 28.7898C44.232 27.6771 43.9266 26.3229 43.9266 24.7273C43.9266 23.1269 44.232 21.7704 44.8428 20.6577C45.4584 19.545 46.2893 18.6998 47.3357 18.1222C48.3821 17.5445 49.5587 17.2557 50.8656 17.2557C52.1676 17.2557 53.3419 17.5445 54.3883 18.1222C55.4394 18.6998 56.2728 19.545 56.8883 20.6577C57.5038 21.7704 57.8116 23.1269 57.8116 24.7273ZM54.2178 24.7273C54.2178 23.7803 54.0829 22.9801 53.813 22.3267C53.5478 21.6733 53.1643 21.1785 52.6624 20.8423C52.1653 20.5062 51.5663 20.3381 50.8656 20.3381C50.1695 20.3381 49.5706 20.5062 49.0687 20.8423C48.5668 21.1785 48.1809 21.6733 47.911 22.3267C47.6459 22.9801 47.5133 23.7803 47.5133 24.7273C47.5133 25.6742 47.6459 26.4744 47.911 27.1278C48.1809 27.7812 48.5668 28.276 49.0687 28.6122C49.5706 28.9484 50.1695 29.1165 50.8656 29.1165C51.5663 29.1165 52.1653 28.9484 52.6624 28.6122C53.1643 28.276 53.5478 27.7812 53.813 27.1278C54.0829 26.4744 54.2178 25.6742 54.2178 24.7273ZM62.7798 17.4545V32H59.2641V17.4545H62.7798ZM76.7661 17.4545V32H73.7831L67.9947 23.6051H67.9024V32H64.3868V17.4545H67.4124L73.1368 25.8352H73.2575V17.4545H76.7661ZM95.8022 24.7273C95.8022 26.3277 95.4944 27.6842 94.8789 28.7969C94.2634 29.9096 93.43 30.7547 92.3789 31.3324C91.3325 31.91 90.1583 32.1989 88.8562 32.1989C87.5494 32.1989 86.3728 31.9077 85.3263 31.3253C84.2799 30.7429 83.449 29.8977 82.8335 28.7898C82.2227 27.6771 81.9173 26.3229 81.9173 24.7273C81.9173 23.1269 82.2227 21.7704 82.8335 20.6577C83.449 19.545 84.2799 18.6998 85.3263 18.1222C86.3728 17.5445 87.5494 17.2557 88.8562 17.2557C90.1583 17.2557 91.3325 17.5445 92.3789 18.1222C93.43 18.6998 94.2634 19.545 94.8789 20.6577C95.4944 21.7704 95.8022 23.1269 95.8022 24.7273ZM92.2085 24.7273C92.2085 23.7803 92.0735 22.9801 91.8036 22.3267C91.5385 21.6733 91.1549 21.1785 90.6531 20.8423C90.1559 20.5062 89.5569 20.3381 88.8562 20.3381C88.1602 20.3381 87.5612 20.5062 87.0593 20.8423C86.5574 21.1785 86.1715 21.6733 85.9016 22.3267C85.6365 22.9801 85.5039 23.7803 85.5039 24.7273C85.5039 25.6742 85.6365 26.4744 85.9016 27.1278C86.1715 27.7812 86.5574 28.276 87.0593 28.6122C87.5612 28.9484 88.1602 29.1165 88.8562 29.1165C89.5569 29.1165 90.1559 28.9484 90.6531 28.6122C91.1549 28.276 91.5385 27.7812 91.8036 27.1278C92.0735 26.4744 92.2085 25.6742 92.2085 24.7273ZM105.117 21.8153C105.07 21.2945 104.859 20.8897 104.485 20.6009C104.116 20.3073 103.588 20.1605 102.901 20.1605C102.447 20.1605 102.068 20.2197 101.765 20.3381C101.462 20.4564 101.234 20.6198 101.083 20.8281C100.931 21.0317 100.853 21.2661 100.849 21.5312C100.839 21.7491 100.882 21.9408 100.976 22.1065C101.076 22.2723 101.218 22.419 101.402 22.5469C101.592 22.67 101.819 22.7789 102.084 22.8736C102.349 22.9683 102.648 23.0511 102.979 23.1222L104.229 23.4062C104.949 23.5625 105.583 23.7708 106.133 24.0312C106.687 24.2917 107.151 24.6018 107.525 24.9616C107.903 25.3215 108.19 25.7358 108.384 26.2045C108.578 26.6733 108.678 27.1989 108.682 27.7812C108.678 28.6998 108.446 29.4882 107.986 30.1463C107.527 30.8045 106.867 31.3087 106.005 31.6591C105.148 32.0095 104.113 32.1847 102.901 32.1847C101.684 32.1847 100.624 32.0024 99.7192 31.6378C98.8149 31.2732 98.1118 30.7192 97.6099 29.9759C97.108 29.2325 96.8499 28.2926 96.8357 27.1562H100.202C100.231 27.625 100.356 28.0156 100.579 28.3281C100.801 28.6406 101.107 28.8774 101.495 29.0384C101.888 29.1993 102.342 29.2798 102.858 29.2798C103.332 29.2798 103.734 29.2159 104.066 29.0881C104.402 28.9602 104.66 28.7827 104.84 28.5554C105.02 28.3281 105.112 28.0677 105.117 27.7741C105.112 27.4995 105.027 27.2652 104.861 27.071C104.696 26.8722 104.44 26.7017 104.094 26.5597C103.753 26.4129 103.318 26.2779 102.787 26.1548L101.268 25.7997C100.008 25.5109 99.0161 25.0445 98.2917 24.4006C97.5673 23.7519 97.2074 22.8759 97.2121 21.7727C97.2074 20.8731 97.4489 20.0848 97.9366 19.4077C98.4243 18.7306 99.099 18.2027 99.9607 17.8239C100.822 17.4451 101.805 17.2557 102.908 17.2557C104.035 17.2557 105.013 17.4474 105.841 17.831C106.675 18.2098 107.321 18.7424 107.78 19.429C108.24 20.1155 108.474 20.911 108.483 21.8153H105.117ZM113.942 17.4545L113.615 27.5469H110.696L110.369 17.4545H113.942ZM112.152 32.206C111.645 32.206 111.21 32.026 110.845 31.6662C110.485 31.3063 110.305 30.8707 110.305 30.3594C110.305 29.8575 110.485 29.429 110.845 29.0739C111.21 28.714 111.645 28.5341 112.152 28.5341C112.64 28.5341 113.068 28.714 113.437 29.0739C113.811 29.429 113.999 29.8575 113.999 30.3594C113.999 30.7003 113.911 31.0104 113.736 31.2898C113.565 31.5691 113.34 31.7917 113.061 31.9574C112.786 32.1231 112.483 32.206 112.152 32.206Z" fill="black"/>
</svg>
